<svg xmlns="http://www.w3.org/2000/svg" width="96" height="96">
    <path fill="#FFF" fill-rule="evenodd" d="M91.412 75.199l-16.19 16.217c-3.268 3.272-6.898 4.582-11.326 4.582h-31.8c-4.574.073-8.132-1.383-11.325-4.582L4.58 75.199C1.531 72.217.006 68.726.006 64.217V31.42c0-3.928 1.453-7.491 4.138-10.183L21.206 4.22C23.964 1.457 27.594.002 31.878.002h32.235c4.284 0 7.841 1.455 10.672 4.218l17.063 17.017c2.686 2.692 4.138 6.255 4.138 10.183v32.797c0 4.437-1.598 8-4.574 10.982zM89.67 53.164c-.073-.946-.581-1.455-1.525-1.455h-4.864v3.419c0 2.544-.364 3.853-2.542 3.853h-2.178c-2.177 0-2.541-1.309-2.541-3.853v-3.419h-3.412c-2.54 0-3.848-.364-3.848-2.546v-2.326c0-2.182 1.308-2.546 3.848-2.546h3.412v-3.418c0-2.545.364-3.854 2.541-3.854h2.178c2.178 0 2.542 1.309 2.542 3.854v3.418h4.864c1.015 0 1.525-.582 1.525-1.672V32.146c0-2.69-.945-5.018-2.832-6.981L70.358 8.438c-1.671-1.673-3.776-2.182-6.171-2.182H31.805c-2.395 0-4.5.509-6.17 2.182L9.155 25.165c-1.96 1.963-2.832 4.291-2.832 6.981v32.071c-.074 2.691.799 4.654 2.687 6.545L25.199 86.98c1.888 1.891 3.993 2.763 6.606 2.763h32.382c2.612 0 4.717-.872 6.606-2.763l16.19-16.218c1.887-1.817 2.687-3.854 2.687-6.545V53.164zm-23.378 5.889c0 8.074-2.832 12.073-13.795 12.291-10.963-.218-13.794-4.217-13.794-12.291 0-5.453.363-9.599 5.227-11.49-4.065-2.981-4.138-6.036-4.138-8.508v-2.472c.436-8.218 3.195-11.347 12.705-11.347 9.511 0 12.269 3.129 12.705 11.347v2.472c0 2.472-.073 5.527-4.139 8.508 4.866 1.891 5.229 6.037 5.229 11.49zM52.497 31.928c-3.992 0-5.59 1.453-5.59 6.327 0 4.727 1.598 6.327 5.59 6.327 3.994 0 5.591-1.6 5.591-6.327 0-4.874-1.597-6.327-5.591-6.327zm0 19.417c-4.646 0-6.316 2.109-6.316 6.691s1.67 6.399 6.316 6.399c4.647 0 6.317-1.817 6.317-6.399s-1.67-6.691-6.317-6.691zM30.8 70.762h-2.467c-2.106 0-2.543-1.309-2.543-3.854V35.491c0-1.454-.434-1.964-1.378-1.964h-1.525c-2.54 0-3.847-.436-3.847-2.545v-2.399c0-2.109 1.307-2.546 3.847-2.546h6.607c2.541 0 3.848.437 3.848 2.546v38.325c0 2.545-.436 3.854-2.542 3.854z" opacity=".251"/>
</svg>
